<mxfile host="app.diagrams.net" modified="2024-01-03T18:04:28.314Z" agent="Mozilla/5.0 (Windows NT 10.0; Win64; x64) AppleWebKit/537.36 (KHTML, like Gecko) Chrome/120.0.0.0 Safari/537.36 Edg/120.0.0.0" version="22.1.16" etag="K2wEmnvoRklQWwvbWvEi" type="github">
  <diagram name="Page-1" id="h96UEPx6LoI7AVfQfayh">
    <mxGraphModel>
      <root>
        <mxCell id="0" />
        <mxCell id="1" parent="0" />
      </root>
    </mxGraphModel>
  </diagram>
</mxfile>
